<?xml version="1.0" encoding="UTF-8"?>
<svg xmlns="http://www.w3.org/2000/svg" viewBox="0 0 99.97 99.97">
  <defs>
    <style>
      .cls-1 {
        opacity: 0;
      }

      .cls-1, .cls-2 {
        fill: #5464f5;
        stroke-width: 0px;
      }
    </style>
  </defs>
  <g id="Layer_2" data-name="Layer 2">
    <rect class="cls-1" width="99.97" height="99.97"/>
  </g>
  <g id="Layer_1" data-name="Layer 1">
    <path class="cls-2" d="M76.28,94.83h-14.46c-.05-4.61-.79-9.09-2.52-13.5-10,8.87-21.6,13.4-34.95,13.56v-14.41c12.97-.44,23.42-5.76,30.92-16.51,4.37-6.27,6.47-13.3,6.53-21.05h-14.17c-.3,7.96-3.56,14.43-10.12,19.07-3.9,2.75-8.28,4.1-13.14,4.07v-23.3h23.13c-.12-6.49-2.36-11.95-6.85-16.45-4.48-4.49-9.97-6.65-16.3-6.8V5.08c10.34.14,19.24,3.73,26.53,11.03,7.27,7.28,10.86,16.22,11.07,26.62h14.35c-.1,1.8-.13,3.49-.3,5.16-.73,7.18-2.8,13.94-6.29,20.27-.19.34-.18.96,0,1.3,3.49,6.33,5.56,13.09,6.29,20.27.17,1.65.2,3.32.3,5.1Z"/>
  </g>
</svg>